<svg width="85" height="83" viewBox="0 0 85 83" fill="none" xmlns="http://www.w3.org/2000/svg">
<path d="M72.1342 41.429V66.7366H12.9955V41.429H72.1342Z" fill="#08241B" stroke="#08241B" stroke-width="1.25"/>
<rect x="21.9398" y="46.9283" width="43.75" height="20" stroke="#08241B" stroke-width="1.25"/>
<path d="M22.3086 62.3033V48.9158H24.8586L27.2773 55.7596L29.6773 48.9158H32.2461V62.3033H29.6023V54.9721L28.1586 59.3971H26.3961L24.9523 54.9721V62.3033H22.3086ZM34.81 62.3033V48.9158H41.635V51.1846H37.585V54.4283H40.9975V56.6971H37.585V60.0346H41.7475V62.3033H34.81ZM43.74 62.3033V48.9158H46.515L49.4775 56.7721V48.9158H52.065V62.3033H49.44L46.3275 54.2971V62.3033H43.74ZM54.5738 48.9158H57.3488V57.9346C57.3488 59.8283 57.5738 60.2783 58.5301 60.2783C59.5801 60.2783 59.8051 59.8846 59.8051 57.9346V48.9158H62.5801V57.9346C62.5801 59.7158 62.4301 60.4658 61.9238 61.1596C61.2301 62.1158 60.2551 62.5096 58.5863 62.5096C56.8051 62.5096 55.7551 62.0408 55.0988 60.9346C54.7051 60.2971 54.5738 59.5658 54.5738 57.9346V48.9158Z" fill="#E6D900"/>
<mask id="path-4-outside-1_257_2857" maskUnits="userSpaceOnUse" x="22.599" y="6.44666" width="43" height="39" fill="black">
<rect fill="white" x="22.599" y="6.44666" width="43" height="39"/>
<path d="M45.0658 15.4467L51.0326 27.9467H46.9144V36.3099H40.6644V27.9467H36.599L42.5658 15.4467H45.0658Z"/>
</mask>
<path d="M45.0658 15.4467L51.0326 27.9467H46.9144V36.3099H40.6644V27.9467H36.599L42.5658 15.4467H45.0658Z" fill="#E6D900"/>
<path d="M45.0658 15.4467L52.9623 11.6773L50.5848 6.69666H45.0658V15.4467ZM51.0326 27.9467V36.6967H64.9051L58.9291 24.1773L51.0326 27.9467ZM46.9144 27.9467V19.1967H38.1644V27.9467H46.9144ZM46.9144 36.3099V45.0599H55.6644V36.3099H46.9144ZM40.6644 36.3099H31.9144V45.0599H40.6644V36.3099ZM40.6644 27.9467H49.4144V19.1967H40.6644V27.9467ZM36.599 27.9467L28.7025 24.1773L22.7265 36.6967H36.599V27.9467ZM42.5658 15.4467V6.69666H37.0468L34.6693 11.6773L42.5658 15.4467ZM45.0658 15.4467L37.1693 19.216L43.1361 31.716L51.0326 27.9467L58.9291 24.1773L52.9623 11.6773L45.0658 15.4467ZM51.0326 27.9467V19.1967H46.9144V27.9467V36.6967H51.0326V27.9467ZM46.9144 27.9467H38.1644V36.3099H46.9144H55.6644V27.9467H46.9144ZM46.9144 36.3099V27.5599H40.6644V36.3099V45.0599H46.9144V36.3099ZM40.6644 36.3099H49.4144V27.9467H40.6644H31.9144V36.3099H40.6644ZM40.6644 27.9467V19.1967H36.599V27.9467V36.6967H40.6644V27.9467ZM36.599 27.9467L44.4955 31.716L50.4623 19.216L42.5658 15.4467L34.6693 11.6773L28.7025 24.1773L36.599 27.9467ZM42.5658 15.4467V24.1967H45.0658V15.4467V6.69666H42.5658V15.4467Z" fill="#08241B" mask="url(#path-4-outside-1_257_2857)"/>
</svg>
